<svg width="20" height="20" viewBox="0 0 20 20" fill="currentColor" xmlns="http://www.w3.org/2000/svg"><path d="M13.75 5.62496V14.4416C13.75 16.1833 12.475 17.7333 10.7416 17.9C8.74998 18.0916 7.08331 16.5333 7.08331 14.5833V4.28329C7.08331 3.19163 7.86665 2.19996 8.94998 2.09163C10.2 1.96663 11.25 2.94163 11.25 4.16663V12.9166C11.25 13.375 10.875 13.75 10.4166 13.75C9.95831 13.75 9.58331 13.375 9.58331 12.9166V5.62496C9.58331 5.28329 9.29998 4.99996 8.95831 4.99996C8.61665 4.99996 8.33331 5.28329 8.33331 5.62496V12.8C8.33331 13.8916 9.11665 14.8833 10.2 14.9916C11.45 15.1166 12.5 14.1416 12.5 12.9166V4.30829C12.5 2.56663 11.225 1.01663 9.49165 0.849959C7.50831 0.658292 5.83331 2.21663 5.83331 4.16663V14.3916C5.83331 16.7833 7.58331 18.925 9.96665 19.15C12.7083 19.4 15 17.2666 15 14.5833V5.62496C15 5.28329 14.7166 4.99996 14.375 4.99996C14.0333 4.99996 13.75 5.28329 13.75 5.62496Z"></path></svg>